<?xml version="1.0"?>
<svg xmlns="http://www.w3.org/2000/svg" xmlns:xlink="http://www.w3.org/1999/xlink" xmlns:svgjs="http://svgjs.com/svgjs" version="1.1" width="512" height="512" x="0" y="0" viewBox="0 0 24 24" style="enable-background:new 0 0 512 512" xml:space="preserve" class=""><g><g xmlns="http://www.w3.org/2000/svg" id="Check"><path d="m12 2c-5.5 0-10 4.5-10 10s4.5 10 10 10 10-4.5 10-10-4.5-10-10-10zm0 18c-4.4 0-8-3.6-8-8s3.6-8 8-8 8 3.6 8 8-3.6 8-8 8z" fill="#fff" data-original="#000000" style="" class=""/><path d="m15.2 7.9-4.3 6-2.2-2.2c-.9-1-2.4.4-1.4 1.4l3 3c.4.4 1.2.4 1.5-.1l5-7c.8-1-.8-2.2-1.6-1.1z" fill="#fff" data-original="#000000" style="" class=""/></g></g></svg>
