<?xml version="1.0"?>
<svg xmlns="http://www.w3.org/2000/svg" xmlns:xlink="http://www.w3.org/1999/xlink" xmlns:svgjs="http://svgjs.com/svgjs" version="1.1" width="512" height="512" x="0" y="0" viewBox="0 0 74 74" style="enable-background:new 0 0 512 512" xml:space="preserve" class=""><circle r="37" cx="37" cy="37" fill="#0d4684" shape="circle"/><g transform="matrix(0.7,0,0,0.7,11.09999957084656,11.09985065460205)"><path xmlns="http://www.w3.org/2000/svg" d="m51.716 53.06h-46.116a3.6 3.6 0 0 1 -3.6-3.6v-34.628a3.6 3.6 0 0 1 3.6-3.6h53.67a3.6 3.6 0 0 1 3.6 3.6v27.656a1 1 0 0 1 -2 0v-27.656a1.6 1.6 0 0 0 -1.6-1.6h-53.67a1.6 1.6 0 0 0 -1.6 1.6v34.629a1.6 1.6 0 0 0 1.6 1.6h46.116a1 1 0 1 1 0 2z" fill="#ffffff" data-original="#000000" style="" class=""/><path xmlns="http://www.w3.org/2000/svg" d="m61.866 27.085h-58.866a1 1 0 0 1 -1-1v-6.061a1 1 0 0 1 1-1h58.866a1 1 0 0 1 1 1v6.061a1 1 0 0 1 -1 1zm-57.866-2h56.866v-4.061h-56.866z" fill="#ffffff" data-original="#000000" style="" class=""/><path xmlns="http://www.w3.org/2000/svg" d="m21.882 45.264h-11.091a1 1 0 0 1 -1-1v-6.064a1 1 0 0 1 1-1h11.091a1 1 0 0 1 1 1v6.06a1 1 0 0 1 -1 1.004zm-10.091-2h9.091v-4.064h-9.091z" fill="#ffffff" data-original="#000000" style="" class=""/><path xmlns="http://www.w3.org/2000/svg" d="m61.358 62.767a10.643 10.643 0 1 1 10.642-10.643 10.655 10.655 0 0 1 -10.642 10.643zm0-19.285a8.643 8.643 0 1 0 8.642 8.642 8.652 8.652 0 0 0 -8.642-8.642z" fill="#ffffff" data-original="#000000" style="" class=""/><path xmlns="http://www.w3.org/2000/svg" d="m59.651 56.09a1 1 0 0 1 -.707-.293l-2.516-2.516a1 1 0 0 1 1.414-1.414l1.809 1.809 5.224-5.224a1 1 0 0 1 1.414 1.414l-5.931 5.934a1 1 0 0 1 -.707.29z" fill="#ffffff" data-original="#000000" style="" class=""/></g></svg>
