<?xml version="1.0"?>
<svg xmlns="http://www.w3.org/2000/svg" xmlns:xlink="http://www.w3.org/1999/xlink" xmlns:svgjs="http://svgjs.com/svgjs" version="1.1" width="512" height="512" x="0" y="0" viewBox="0 0 354.968 354.968" style="enable-background:new 0 0 512 512" xml:space="preserve" class=""><circle r="177.484" cx="177.484" cy="177.484" fill="#2F698D" shape="circle" transform="matrix(1,0,0,1,0,0)"/><g transform="matrix(0.6,0,0,0.6,70.99382057189939,70.99360733032228)">
<g xmlns="http://www.w3.org/2000/svg">
	<g>
		<path d="M350.775,341.319c-9.6-28.4-20.8-55.2-34.4-80.8c0.4-0.4,0.8-1.2,1.6-1.6c30.8-34.8,44-83.6,20.4-131.6    c-20.4-41.6-65.6-76.4-124.8-98.8c-57.2-22-127.6-32.4-200.4-27.2c-5.6,0.4-10,5.2-9.6,10.8c0.4,2.8,1.6,5.6,4,7.2    c36.8,31.6,50,79.2,63.6,126.8c8,28,15.6,55.6,28.4,81.2c0,0.4,0.4,0.4,0.4,0.8c30.8,59.6,78,81.2,122.8,78.4    c18.4-1.2,36-6.4,52.4-14.4c9.2-4.8,18-10.4,26-16.8c11.6,23.2,22,47.2,30.4,72.8c1.6,5.2,7.6,8,12.8,6.4    C349.975,352.119,352.775,346.519,350.775,341.319z M271.175,189.319c-34.8-44.4-78-82.4-131.6-112.4c-4.8-2.8-11.2-1.2-13.6,4    c-2.8,4.8-1.2,11.2,4,13.6c50.8,28.8,92.4,64.8,125.6,107.2c13.2,17.2,25.2,35.2,36,54c-8,7.6-16.4,13.6-25.6,18    c-14,7.2-28.8,11.6-44.4,12.4c-37.6,2.4-77.2-16-104-67.6v-0.4c-11.6-24-19.2-50.8-26.8-78c-12.4-43.2-24.4-86.4-53.6-120.4    c61.6-1.6,120.4,8.4,169.2,27.2c54.4,20.8,96,52,114,88.8c18.8,38,9.2,76.8-14.4,105.2    C295.575,222.919,283.975,205.719,271.175,189.319z" fill="#50cc45" data-original="#000000" style="" class=""/>
	</g>
</g>
<g xmlns="http://www.w3.org/2000/svg">
</g>
<g xmlns="http://www.w3.org/2000/svg">
</g>
<g xmlns="http://www.w3.org/2000/svg">
</g>
<g xmlns="http://www.w3.org/2000/svg">
</g>
<g xmlns="http://www.w3.org/2000/svg">
</g>
<g xmlns="http://www.w3.org/2000/svg">
</g>
<g xmlns="http://www.w3.org/2000/svg">
</g>
<g xmlns="http://www.w3.org/2000/svg">
</g>
<g xmlns="http://www.w3.org/2000/svg">
</g>
<g xmlns="http://www.w3.org/2000/svg">
</g>
<g xmlns="http://www.w3.org/2000/svg">
</g>
<g xmlns="http://www.w3.org/2000/svg">
</g>
<g xmlns="http://www.w3.org/2000/svg">
</g>
<g xmlns="http://www.w3.org/2000/svg">
</g>
<g xmlns="http://www.w3.org/2000/svg">
</g>
</g></svg>
