<svg width="106" height="124" viewBox="0 0 106 124" fill="none" xmlns="http://www.w3.org/2000/svg">
<circle cx="53" cy="62" r="51" stroke="#0D4684" stroke-width="3"/>
<path d="M49.4016 88.784C53.3696 88.784 56.3776 87.728 58.4256 85.616C60.5376 83.504 61.5936 80.944 61.5936 77.936C61.5936 74.288 60.5056 71.6 58.3296 69.872C56.1536 68.144 52.7296 67.28 48.0576 67.28H41.1456V60.656L52.7616 44.816L58.2336 40.496L50.6496 41.36H34.5216V30.8H71.1936V37.616L57.6576 55.76L53.4336 58.352V58.832L57.4656 58.256C59.7056 58.448 61.8176 58.96 63.8016 59.792C65.8496 60.624 67.6096 61.84 69.0816 63.44C70.6176 64.976 71.8336 66.896 72.7296 69.2C73.6256 71.504 74.0736 74.16 74.0736 77.168C74.0736 80.944 73.4336 84.208 72.1536 86.96C70.9376 89.712 69.2096 92.016 66.9696 93.872C64.7936 95.728 62.2336 97.104 59.2896 98C56.3456 98.896 53.1776 99.344 49.7856 99.344C46.9696 99.344 44.0576 99.088 41.0496 98.576C38.0416 98.064 35.6096 97.328 33.7536 96.368L37.1136 86C38.7776 86.832 40.6016 87.504 42.5856 88.016C44.6336 88.528 46.9056 88.784 49.4016 88.784Z" fill="#0D4684"/>
</svg>
