<svg width="106" height="124" viewBox="0 0 106 124" fill="none" xmlns="http://www.w3.org/2000/svg">
<circle cx="53" cy="62" r="51" stroke="#0D4684" stroke-width="3"/>
<path d="M71.8656 47.216C71.8656 50.48 71.2576 53.776 70.0416 57.104C68.8896 60.432 67.3856 63.696 65.5296 66.896C63.7376 70.096 61.7216 73.2 59.4816 76.208C57.3056 79.152 55.1616 81.872 53.0496 84.368L47.9616 88.304V88.784L54.8736 87.44H73.3056V98H32.8896V91.568C34.4256 89.968 36.1536 88.112 38.0736 86C39.9936 83.824 41.9136 81.552 43.8336 79.184C45.8176 76.752 47.7376 74.256 49.5936 71.696C51.4496 69.136 53.1136 66.576 54.5856 64.016C56.0576 61.392 57.2096 58.864 58.0416 56.432C58.9376 54 59.3856 51.696 59.3856 49.52C59.3856 46.896 58.6176 44.752 57.0816 43.088C55.6096 41.36 53.2416 40.496 49.9776 40.496C47.9296 40.496 45.8176 40.944 43.6416 41.84C41.5296 42.672 39.7376 43.76 38.2656 45.104L33.2736 36.272C35.7696 34.224 38.5856 32.592 41.7216 31.376C44.9216 30.096 48.6656 29.456 52.9536 29.456C55.7056 29.456 58.2336 29.84 60.5376 30.608C62.8416 31.376 64.8256 32.496 66.4896 33.968C68.1536 35.44 69.4656 37.296 70.4256 39.536C71.3856 41.712 71.8656 44.272 71.8656 47.216Z" fill="#0D4684"/>
</svg>
